<!DOCTYPE svg PUBLIC "-//W3C//DTD SVG 1.1//EN" "http://www.w3.org/Graphics/SVG/1.1/DTD/svg11.dtd">
<!-- Uploaded to: SVG Repo, www.svgrepo.com, Transformed by: SVG Repo Mixer Tools -->
<svg fill="#2f60b5" height="800px" width="800px" version="1.1" id="Layer_1" xmlns="http://www.w3.org/2000/svg" xmlns:xlink="http://www.w3.org/1999/xlink" viewBox="0 0 511.999 511.999" xml:space="preserve">
<g id="SVGRepo_bgCarrier" stroke-width="0"/>
<g id="SVGRepo_tracerCarrier" stroke-linecap="round" stroke-linejoin="round"/>
<g id="SVGRepo_iconCarrier"> <g> <g> <path d="M390.337,187.406v-53.068C390.337,60.264,330.074,0,255.999,0S121.663,60.264,121.663,134.338v53.067 c-26.177,11.797-44.455,38.117-44.455,68.643V469.93c0,23.197,18.872,42.069,42.067,42.069h273.447 c23.197,0,42.068-18.872,42.068-42.069V256.048C434.791,225.522,416.513,199.202,390.337,187.406z M255.999,34.577 c55.008,0,99.762,44.753,99.762,99.761v46.446h-31.947v-46.446c0-37.393-30.421-67.814-67.814-67.814 s-67.813,30.421-67.813,67.814v46.446H156.24v-46.446h-0.002C156.238,79.33,200.991,34.577,255.999,34.577z M289.238,134.338 v46.446h-66.476v-46.446c0-18.327,14.91-33.237,33.237-33.237S289.238,116.011,289.238,134.338z M392.722,477.423H119.275 c-4.131,0-7.492-3.361-7.492-7.492V256.048c0-19.228,13.412-36.139,31.368-40.364c7.464-1.748,216.549-0.602,221.409,0 c20.17,2.53,35.653,19.712,35.653,40.364v213.884h0.001C400.215,474.063,396.855,477.423,392.722,477.423z"/> </g> </g> <g> <g> <path d="M255.999,246.993c-37.702,0-68.375,30.674-68.375,68.376c0,18.425,7.569,36.125,20.599,48.901v32.675 c0,26.343,21.432,47.776,47.776,47.776c26.345,0,47.776-21.433,47.776-47.776V364.27c13.031-12.776,20.6-30.476,20.6-48.901 C324.375,277.667,293.702,246.993,255.999,246.993z M276.159,342.499c-4.381,3.263-6.961,8.403-6.961,13.865v40.582 c0,7.278-5.922,13.199-13.199,13.199c-7.278,0-13.199-5.921-13.199-13.199v-40.582c0-5.462-2.58-10.602-6.959-13.865 c-8.667-6.457-13.64-16.345-13.64-27.131c0-18.637,15.163-33.799,33.798-33.799c18.638,0,33.8,15.162,33.8,33.799 C289.799,326.154,284.828,336.042,276.159,342.499z"/> </g> </g> </g>
</svg>