<!DOCTYPE svg PUBLIC "-//W3C//DTD SVG 1.1//EN" "http://www.w3.org/Graphics/SVG/1.1/DTD/svg11.dtd">
<!-- Uploaded to: SVG Repo, www.svgrepo.com, Transformed by: SVG Repo Mixer Tools -->
<svg fill="#2f60b5" height="800px" width="800px" version="1.1" id="Capa_1" xmlns="http://www.w3.org/2000/svg" xmlns:xlink="http://www.w3.org/1999/xlink" viewBox="0 0 301.362 301.362" xml:space="preserve">
<g id="SVGRepo_bgCarrier" stroke-width="0"/>
<g id="SVGRepo_tracerCarrier" stroke-linecap="round" stroke-linejoin="round"/>
<g id="SVGRepo_iconCarrier"> <g> <path d="M173.108,129.483c-4.562-1.814-12.184-3.896-22.612-6.177c-4.52-1.008-7.293-1.993-8.244-2.918 c-0.905-0.886-1.386-2.018-1.386-3.269c0-4.422,4.65-5.351,8.549-5.351c4.843,0,8.569,1.438,11.082,4.27 c2.521,2.838,6.472,3.939,10.093,2.803l4.994-1.564c3.167-0.988,5.598-3.533,6.445-6.74c0.845-3.207-0.016-6.624-2.283-9.046 c-4.908-5.251-11.375-8.597-19.657-10.178V80c0-5.326-4.316-9.642-9.644-9.642c-5.324,0-9.641,4.317-9.641,9.642v11.102 c-9.253,1.549-16.277,5.101-20.872,10.57c-4.747,5.653-7.152,12.212-7.152,19.501c0,6.714,2.136,12.487,6.539,17.649 c4.336,5.092,14.652,9.329,30.664,12.594c3.983,0.811,6.781,1.762,8.316,2.832c1.504,1.049,2.205,2.407,2.205,4.276 c0,1.287,0,5.207-9.856,5.207c-6.401,0-11.033-1.997-13.771-5.932c-2.165-3.109-5.949-4.663-9.673-3.974l-7.279,1.356 c-3.177,0.585-5.846,2.731-7.111,5.703c-1.268,2.973-0.957,6.381,0.822,9.082c5.809,8.812,14.952,14.107,27.168,15.761v15 c0,5.326,4.316,9.641,9.641,9.641c5.329,0,9.644-4.315,9.644-9.641v-15.513c8.371-1.556,15.173-4.778,20.256-9.608 c5.954-5.654,8.971-12.762,8.971-21.125c0-5.973-1.557-11.228-4.621-15.608C181.632,134.485,177.735,131.325,173.108,129.483z"/> <path d="M278.623,56.115c-0.158-4.116-2.131-7.904-5.415-10.395c-2.362-1.789-5.317-2.775-8.324-2.775 c-1.064,0-2.122,0.124-3.14,0.368c-4.15,0.992-8.598,1.496-13.219,1.496c-42.251,0-86.794-39.575-88.657-41.247 C157.334,1.265,154.062,0,150.654,0c-3.406,0-6.674,1.255-9.205,3.536C140.991,3.949,95.128,44.809,52.83,44.81 c-4.618,0-9.063-0.503-13.207-1.494c-3.929-0.947-8.245-0.039-11.473,2.408c-3.281,2.488-5.254,6.275-5.411,10.39 c-1.392,36.159,4.068,71.451,16.227,104.895c9.705,26.692,23.663,52.232,41.488,75.906c30.355,40.324,61.337,61.263,62.641,62.134 c2.264,1.514,4.899,2.314,7.62,2.314c2.722,0,5.357-0.8,7.614-2.312c1.303-0.869,32.244-21.77,62.615-62.139 c17.815-23.679,31.764-49.217,41.461-75.907C274.557,127.564,280.015,92.274,278.623,56.115z M243.89,83.023 c-1.471,22.709-6.131,44.991-13.847,66.226c-8.532,23.481-20.85,46.01-36.613,66.961c-14.913,19.82-30.089,34.381-40.194,43.104 l-2.525,2.179l-2.525-2.178c-10.117-8.729-25.307-23.295-40.223-43.11c-15.773-20.952-28.099-43.482-36.635-66.965 c-7.721-21.229-12.383-43.508-13.855-66.22l-0.246-3.803l3.799-0.299c21.854-1.715,45.407-10.231,70.004-25.315 c5.8-3.555,11.633-7.472,17.341-11.643l2.279-1.665l2.279,1.664c5.705,4.166,11.547,8.086,17.365,11.652 c24.614,15.081,48.178,23.594,70.041,25.308l3.8,0.298L243.89,83.023z"/> </g> </g>
</svg>