<!DOCTYPE svg PUBLIC "-//W3C//DTD SVG 1.1//EN" "http://www.w3.org/Graphics/SVG/1.1/DTD/svg11.dtd">
<!-- Uploaded to: SVG Repo, www.svgrepo.com, Transformed by: SVG Repo Mixer Tools -->
<svg version="1.1" id="Icons" xmlns="http://www.w3.org/2000/svg" xmlns:xlink="http://www.w3.org/1999/xlink" viewBox="0 0 32 32" xml:space="preserve" width="191px" height="191px" fill="#000000">
<g id="SVGRepo_bgCarrier" stroke-width="0"/>
<g id="SVGRepo_tracerCarrier" stroke-linecap="round" stroke-linejoin="round"/>
<g id="SVGRepo_iconCarrier"> <style type="text/css"> .st0{fill:none;stroke:#2f60b5;stroke-width:2;stroke-linecap:round;stroke-linejoin:round;stroke-miterlimit:10;} .st1{fill:none;stroke:#2f60b5;stroke-width:2;stroke-linecap:round;stroke-linejoin:round;stroke-miterlimit:10;stroke-dasharray:3;} .st2{fill:none;stroke:#2f60b5;stroke-width:2;stroke-linejoin:round;stroke-miterlimit:10;} .st3{fill:none;} </style> <rect x="2" y="7" class="st0" width="12" height="4"/> <rect x="3" y="11" class="st0" width="10" height="7"/> <path class="st0" d="M6,7h2V5c0-1.1-0.9-2-2-2h0C4.9,3,4,3.9,4,5v0C4,6.1,4.9,7,6,7z"/> <path class="st0" d="M10,7H8V5c0-1.1,0.9-2,2-2h0c1.1,0,2,0.9,2,2v0C12,6.1,11.1,7,10,7z"/> <circle class="st0" cx="24" cy="24" r="2"/> <circle class="st0" cx="8" cy="24" r="2"/> <polyline class="st0" points="19,24 19,13 25,13 29,18 29,24 26,24 "/> <polyline class="st0" points="3,18 3,24 6,24 "/> <polyline class="st0" points="10,24 19,24 19,9 14,9 "/> <rect x="-432" y="-432" class="st3" width="536" height="680"/> </g>
</svg>